<svg width="20" height="18" viewBox="0 0 20 18" fill="none" xmlns="http://www.w3.org/2000/svg">
<g clip-path="url(#clip0_746_151)">
<path d="M18.8889 0C19.5035 0 20 0.496528 20 1.11111V16.6667C20 17.2812 19.5035 17.7778 18.8889 17.7778C18.2743 17.7778 17.7778 17.2812 17.7778 16.6667V1.11111C17.7778 0.496528 18.2743 0 18.8889 0ZM14.4444 3.33333C15.059 3.33333 15.5556 3.82986 15.5556 4.44444V16.6667C15.5556 17.2812 15.059 17.7778 14.4444 17.7778C13.8299 17.7778 13.3333 17.2812 13.3333 16.6667V4.44444C13.3333 3.82986 13.8299 3.33333 14.4444 3.33333ZM11.1111 7.77778V16.6667C11.1111 17.2812 10.6146 17.7778 10 17.7778C9.38542 17.7778 8.88889 17.2812 8.88889 16.6667V7.77778C8.88889 7.16319 9.38542 6.66667 10 6.66667C10.6146 6.66667 11.1111 7.16319 11.1111 7.77778ZM5.55556 10C6.17014 10 6.66667 10.4965 6.66667 11.1111V16.6667C6.66667 17.2812 6.17014 17.7778 5.55556 17.7778C4.94097 17.7778 4.44444 17.2812 4.44444 16.6667V11.1111C4.44444 10.4965 4.94097 10 5.55556 10ZM2.22222 14.4444V16.6667C2.22222 17.2812 1.72569 17.7778 1.11111 17.7778C0.496528 17.7778 0 17.2812 0 16.6667V14.4444C0 13.8299 0.496528 13.3333 1.11111 13.3333C1.72569 13.3333 2.22222 13.8299 2.22222 14.4444Z" fill="white"/>
</g>
<defs>
<clipPath id="clip0_746_151">
<rect width="20" height="17.7778" fill="white"/>
</clipPath>
</defs>
</svg>
